<mxfile host="app.diagrams.net" modified="2022-06-13T03:27:59.088Z" agent="5.0 (Windows NT 10.0; Win64; x64) AppleWebKit/537.36 (KHTML, like Gecko) Chrome/102.0.5005.63 Safari/537.36 Edg/102.0.1245.33" etag="JD4nrDhiXrdyRFWIghYT" version="18.2.0" type="github">
  <diagram id="l3KeeaUU528Fxd-ypMfQ" name="第 1 页">
    <mxGraphModel dx="2109" dy="692" grid="0" gridSize="10" guides="1" tooltips="1" connect="1" arrows="1" fold="1" page="1" pageScale="1" pageWidth="827" pageHeight="1169" math="0" shadow="0">
      <root>
        <mxCell id="0" />
        <mxCell id="1" parent="0" />
        <mxCell id="sZfoS66CgbQDu7fXdqCo-36" style="edgeStyle=orthogonalEdgeStyle;rounded=0;orthogonalLoop=1;jettySize=auto;html=1;exitX=1;exitY=0.5;exitDx=0;exitDy=0;entryX=0;entryY=0.5;entryDx=0;entryDy=0;" edge="1" parent="1" source="sZfoS66CgbQDu7fXdqCo-1" target="sZfoS66CgbQDu7fXdqCo-5">
          <mxGeometry relative="1" as="geometry" />
        </mxCell>
        <mxCell id="sZfoS66CgbQDu7fXdqCo-1" value="将n反转得到r1数组" style="rounded=0;whiteSpace=wrap;html=1;" vertex="1" parent="1">
          <mxGeometry x="-357" y="603" width="120" height="60" as="geometry" />
        </mxCell>
        <mxCell id="sZfoS66CgbQDu7fXdqCo-34" style="edgeStyle=orthogonalEdgeStyle;rounded=0;orthogonalLoop=1;jettySize=auto;html=1;exitX=1;exitY=0.5;exitDx=0;exitDy=0;entryX=0;entryY=0.5;entryDx=0;entryDy=0;" edge="1" parent="1" source="sZfoS66CgbQDu7fXdqCo-3" target="sZfoS66CgbQDu7fXdqCo-4">
          <mxGeometry relative="1" as="geometry" />
        </mxCell>
        <mxCell id="sZfoS66CgbQDu7fXdqCo-3" value="开始" style="ellipse;whiteSpace=wrap;html=1;" vertex="1" parent="1">
          <mxGeometry x="-797" y="598" width="140" height="70" as="geometry" />
        </mxCell>
        <mxCell id="sZfoS66CgbQDu7fXdqCo-35" style="edgeStyle=orthogonalEdgeStyle;rounded=0;orthogonalLoop=1;jettySize=auto;html=1;exitX=1;exitY=0.5;exitDx=0;exitDy=0;entryX=0;entryY=0.5;entryDx=0;entryDy=0;" edge="1" parent="1" source="sZfoS66CgbQDu7fXdqCo-4" target="sZfoS66CgbQDu7fXdqCo-1">
          <mxGeometry relative="1" as="geometry" />
        </mxCell>
        <mxCell id="sZfoS66CgbQDu7fXdqCo-4" value="输入一个整数&lt;br&gt;放至字符串n中" style="shape=parallelogram;perimeter=parallelogramPerimeter;whiteSpace=wrap;html=1;fixedSize=1;" vertex="1" parent="1">
          <mxGeometry x="-597" y="598" width="150" height="70" as="geometry" />
        </mxCell>
        <mxCell id="sZfoS66CgbQDu7fXdqCo-7" value="" style="edgeStyle=orthogonalEdgeStyle;rounded=0;orthogonalLoop=1;jettySize=auto;html=1;" edge="1" parent="1" source="sZfoS66CgbQDu7fXdqCo-5" target="sZfoS66CgbQDu7fXdqCo-6">
          <mxGeometry relative="1" as="geometry" />
        </mxCell>
        <mxCell id="sZfoS66CgbQDu7fXdqCo-5" value="将r1反转得到r2数组" style="rounded=0;whiteSpace=wrap;html=1;" vertex="1" parent="1">
          <mxGeometry x="-167" y="603" width="120" height="60" as="geometry" />
        </mxCell>
        <mxCell id="sZfoS66CgbQDu7fXdqCo-39" value="N" style="edgeStyle=orthogonalEdgeStyle;rounded=0;orthogonalLoop=1;jettySize=auto;html=1;exitX=0.5;exitY=1;exitDx=0;exitDy=0;entryX=0.5;entryY=0;entryDx=0;entryDy=0;" edge="1" parent="1" source="sZfoS66CgbQDu7fXdqCo-6" target="sZfoS66CgbQDu7fXdqCo-21">
          <mxGeometry relative="1" as="geometry" />
        </mxCell>
        <mxCell id="sZfoS66CgbQDu7fXdqCo-40" value="Y" style="edgeStyle=orthogonalEdgeStyle;rounded=0;orthogonalLoop=1;jettySize=auto;html=1;exitX=0;exitY=0.5;exitDx=0;exitDy=0;" edge="1" parent="1" source="sZfoS66CgbQDu7fXdqCo-6">
          <mxGeometry relative="1" as="geometry">
            <mxPoint x="-307" y="808" as="targetPoint" />
          </mxGeometry>
        </mxCell>
        <mxCell id="sZfoS66CgbQDu7fXdqCo-6" value="r2的长度等于n的长度" style="rhombus;whiteSpace=wrap;html=1;rounded=0;" vertex="1" parent="1">
          <mxGeometry x="-172" y="758" width="130" height="100" as="geometry" />
        </mxCell>
        <mxCell id="sZfoS66CgbQDu7fXdqCo-41" value="N" style="edgeStyle=orthogonalEdgeStyle;rounded=0;orthogonalLoop=1;jettySize=auto;html=1;exitX=0.5;exitY=1;exitDx=0;exitDy=0;entryX=0.5;entryY=0;entryDx=0;entryDy=0;" edge="1" parent="1" source="sZfoS66CgbQDu7fXdqCo-13" target="sZfoS66CgbQDu7fXdqCo-21">
          <mxGeometry relative="1" as="geometry" />
        </mxCell>
        <mxCell id="sZfoS66CgbQDu7fXdqCo-42" value="Y" style="edgeStyle=orthogonalEdgeStyle;rounded=0;orthogonalLoop=1;jettySize=auto;html=1;exitX=0;exitY=0.5;exitDx=0;exitDy=0;entryX=1;entryY=0.5;entryDx=0;entryDy=0;" edge="1" parent="1" source="sZfoS66CgbQDu7fXdqCo-13" target="sZfoS66CgbQDu7fXdqCo-15">
          <mxGeometry relative="1" as="geometry" />
        </mxCell>
        <mxCell id="sZfoS66CgbQDu7fXdqCo-13" value="r2的各个元素&lt;br&gt;是否与n的各位相等" style="rhombus;whiteSpace=wrap;html=1;rounded=0;" vertex="1" parent="1">
          <mxGeometry x="-442" y="758" width="130" height="100" as="geometry" />
        </mxCell>
        <mxCell id="sZfoS66CgbQDu7fXdqCo-43" style="edgeStyle=orthogonalEdgeStyle;rounded=0;orthogonalLoop=1;jettySize=auto;html=1;entryX=0.5;entryY=0;entryDx=0;entryDy=0;" edge="1" parent="1" source="sZfoS66CgbQDu7fXdqCo-15" target="sZfoS66CgbQDu7fXdqCo-29">
          <mxGeometry relative="1" as="geometry" />
        </mxCell>
        <mxCell id="sZfoS66CgbQDu7fXdqCo-15" value="返回true" style="rounded=0;whiteSpace=wrap;html=1;" vertex="1" parent="1">
          <mxGeometry x="-627" y="778" width="120" height="60" as="geometry" />
        </mxCell>
        <mxCell id="sZfoS66CgbQDu7fXdqCo-44" style="edgeStyle=orthogonalEdgeStyle;rounded=0;orthogonalLoop=1;jettySize=auto;html=1;exitX=0;exitY=0.5;exitDx=0;exitDy=0;entryX=1;entryY=0.5;entryDx=0;entryDy=0;" edge="1" parent="1" source="sZfoS66CgbQDu7fXdqCo-21" target="sZfoS66CgbQDu7fXdqCo-29">
          <mxGeometry relative="1" as="geometry" />
        </mxCell>
        <mxCell id="sZfoS66CgbQDu7fXdqCo-21" value="返回false" style="rounded=0;whiteSpace=wrap;html=1;" vertex="1" parent="1">
          <mxGeometry x="-437" y="968" width="120" height="60" as="geometry" />
        </mxCell>
        <mxCell id="sZfoS66CgbQDu7fXdqCo-29" value="结束" style="ellipse;whiteSpace=wrap;html=1;rounded=0;" vertex="1" parent="1">
          <mxGeometry x="-627" y="968" width="120" height="60" as="geometry" />
        </mxCell>
      </root>
    </mxGraphModel>
  </diagram>
</mxfile>
